# xmcd
#
# Track frame offsets:
#	150
#	16220
#	34477
#	52095
#	69875
#	91442
#	108195
#	121480
#	136965
#	154370
#
# Disc length: 2365 seconds
#
# Revision: 0
# Processed by: cddbd v1.5.2PL0 Copyright (c) Steve Scherf et al.
# Submitted via: audiograbber 1.83.01
#
DISCID=86093b0a
DTITLE=Specs Hildebrand and The Living Room Band - I Cast Myself To Play The Lead
DTITLE=(In The Story Of My Life)
DYEAR=1989
DGENRE=Country
TTITLE0=Home
TTITLE1=Caldo Largo
TTITLE2=Old Crow
TTITLE3=Revenge Is A Dish (Better Served Cold)
TTITLE4=The First Itch Of Healing
TTITLE5=The Longer You're Gone
TTITLE6=I Cast Myself To Play The Lead (In The Story Of My Life)
TTITLE7=Dreams Are Deceptive
TTITLE8=You Gotta Pay The Price
TTITLE9=One Stab
EXTD=
EXTT0=
EXTT1=
EXTT2=
EXTT3=
EXTT4=
EXTT5=
EXTT6=
EXTT7=
EXTT8=
EXTT9=
PLAYORDER=
